<svg xmlns="http://www.w3.org/2000/svg" viewBox="0 0 38 32" shape-rendering="crispEdges" role="img" aria-label="Whirly, a pixel-art rubber duck"><rect x="7" y="0" width="17" height="1" fill="#17171A"/><rect x="7" y="1" width="1" height="1" fill="#17171A"/><rect x="8" y="1" width="15" height="1" fill="#C23B3B"/><rect x="23" y="1" width="1" height="1" fill="#17171A"/><rect x="7" y="2" width="17" height="1" fill="#17171A"/><rect x="10" y="3" width="3" height="1" fill="#17171A"/><rect x="13" y="3" width="1" height="1" fill="#FF6B6B"/><rect x="14" y="3" width="3" height="1" fill="#17171A"/><rect x="17" y="3" width="1" height="1" fill="#FF6B6B"/><rect x="18" y="3" width="3" height="1" fill="#17171A"/><rect x="9" y="4" width="2" height="1" fill="#17171A"/><rect x="11" y="4" width="9" height="1" fill="#FF6B6B"/><rect x="20" y="4" width="2" height="1" fill="#17171A"/><rect x="9" y="5" width="1" height="1" fill="#17171A"/><rect x="10" y="5" width="11" height="1" fill="#FF6B6B"/><rect x="21" y="5" width="1" height="1" fill="#17171A"/><rect x="9" y="6" width="13" height="1" fill="#17171A"/><rect x="9" y="7" width="1" height="1" fill="#17171A"/><rect x="10" y="7" width="10" height="1" fill="#C9E8FF"/><rect x="20" y="7" width="1" height="1" fill="#17171A"/><rect x="9" y="8" width="1" height="1" fill="#17171A"/><rect x="10" y="8" width="3" height="1" fill="#C9E8FF"/><rect x="13" y="8" width="4" height="1" fill="#FFFFFF"/><rect x="17" y="8" width="3" height="1" fill="#C9E8FF"/><rect x="20" y="8" width="1" height="1" fill="#17171A"/><rect x="8" y="9" width="1" height="1" fill="#17171A"/><rect x="9" y="9" width="3" height="1" fill="#9BD4FF"/><rect x="12" y="9" width="3" height="1" fill="#FFFFFF"/><rect x="15" y="9" width="2" height="1" fill="#17171A"/><rect x="17" y="9" width="1" height="1" fill="#FFFFFF"/><rect x="18" y="9" width="3" height="1" fill="#9BD4FF"/><rect x="21" y="9" width="1" height="1" fill="#17171A"/><rect x="8" y="10" width="1" height="1" fill="#17171A"/><rect x="9" y="10" width="3" height="1" fill="#9BD4FF"/><rect x="12" y="10" width="2" height="1" fill="#FFFFFF"/><rect x="14" y="10" width="3" height="1" fill="#17171A"/><rect x="17" y="10" width="1" height="1" fill="#FFFFFF"/><rect x="18" y="10" width="3" height="1" fill="#9BD4FF"/><rect x="21" y="10" width="1" height="1" fill="#17171A"/><rect x="8" y="11" width="1" height="1" fill="#17171A"/><rect x="9" y="11" width="3" height="1" fill="#9BD4FF"/><rect x="12" y="11" width="2" height="1" fill="#FFFFFF"/><rect x="14" y="11" width="3" height="1" fill="#17171A"/><rect x="17" y="11" width="1" height="1" fill="#FFFFFF"/><rect x="18" y="11" width="3" height="1" fill="#9BD4FF"/><rect x="21" y="11" width="1" height="1" fill="#17171A"/><rect x="29" y="11" width="5" height="1" fill="#17171A"/><rect x="5" y="12" width="3" height="1" fill="#17171A"/><rect x="8" y="12" width="5" height="1" fill="#9BD4FF"/><rect x="13" y="12" width="4" height="1" fill="#FFFFFF"/><rect x="17" y="12" width="2" height="1" fill="#9BD4FF"/><rect x="19" y="12" width="2" height="1" fill="#739DBD"/><rect x="21" y="12" width="1" height="1" fill="#17171A"/><rect x="28" y="12" width="1" height="1" fill="#17171A"/><rect x="29" y="12" width="5" height="1" fill="#C9E8FF"/><rect x="34" y="12" width="1" height="1" fill="#17171A"/><rect x="2" y="13" width="3" height="1" fill="#17171A"/><rect x="5" y="13" width="3" height="1" fill="#F2994A"/><rect x="8" y="13" width="10" height="1" fill="#9BD4FF"/><rect x="18" y="13" width="2" height="1" fill="#FF8FB0"/><rect x="20" y="13" width="1" height="1" fill="#739DBD"/><rect x="21" y="13" width="1" height="1" fill="#17171A"/><rect x="27" y="13" width="1" height="1" fill="#17171A"/><rect x="28" y="13" width="7" height="1" fill="#C9E8FF"/><rect x="35" y="13" width="1" height="1" fill="#17171A"/><rect x="1" y="14" width="1" height="1" fill="#17171A"/><rect x="2" y="14" width="7" height="1" fill="#F2994A"/><rect x="9" y="14" width="6" height="1" fill="#9BD4FF"/><rect x="15" y="14" width="7" height="1" fill="#C9E8FF"/><rect x="22" y="14" width="5" height="1" fill="#17171A"/><rect x="27" y="14" width="8" height="1" fill="#C9E8FF"/><rect x="35" y="14" width="1" height="1" fill="#17171A"/><rect x="2" y="15" width="3" height="1" fill="#17171A"/><rect x="5" y="15" width="4" height="1" fill="#AE6E35"/><rect x="9" y="15" width="3" height="1" fill="#739DBD"/><rect x="12" y="15" width="24" height="1" fill="#C9E8FF"/><rect x="36" y="15" width="1" height="1" fill="#17171A"/><rect x="5" y="16" width="5" height="1" fill="#17171A"/><rect x="10" y="16" width="1" height="1" fill="#739DBD"/><rect x="11" y="16" width="25" height="1" fill="#C9E8FF"/><rect x="36" y="16" width="1" height="1" fill="#17171A"/><rect x="10" y="17" width="1" height="1" fill="#17171A"/><rect x="11" y="17" width="13" height="1" fill="#C9E8FF"/><rect x="24" y="17" width="3" height="1" fill="#17171A"/><rect x="27" y="17" width="8" height="1" fill="#C9E8FF"/><rect x="35" y="17" width="1" height="1" fill="#17171A"/><rect x="9" y="18" width="1" height="1" fill="#17171A"/><rect x="10" y="18" width="12" height="1" fill="#9BD4FF"/><rect x="22" y="18" width="2" height="1" fill="#17171A"/><rect x="24" y="18" width="3" height="1" fill="#C9E8FF"/><rect x="27" y="18" width="2" height="1" fill="#17171A"/><rect x="29" y="18" width="6" height="1" fill="#9BD4FF"/><rect x="35" y="18" width="1" height="1" fill="#17171A"/><rect x="8" y="19" width="1" height="1" fill="#17171A"/><rect x="9" y="19" width="12" height="1" fill="#9BD4FF"/><rect x="21" y="19" width="8" height="1" fill="#C9E8FF"/><rect x="29" y="19" width="1" height="1" fill="#17171A"/><rect x="30" y="19" width="5" height="1" fill="#9BD4FF"/><rect x="35" y="19" width="1" height="1" fill="#17171A"/><rect x="8" y="20" width="1" height="1" fill="#17171A"/><rect x="9" y="20" width="12" height="1" fill="#9BD4FF"/><rect x="21" y="20" width="8" height="1" fill="#C9E8FF"/><rect x="29" y="20" width="1" height="1" fill="#17171A"/><rect x="30" y="20" width="5" height="1" fill="#9BD4FF"/><rect x="35" y="20" width="1" height="1" fill="#17171A"/><rect x="8" y="21" width="1" height="1" fill="#17171A"/><rect x="9" y="21" width="12" height="1" fill="#9BD4FF"/><rect x="21" y="21" width="8" height="1" fill="#C9E8FF"/><rect x="29" y="21" width="1" height="1" fill="#17171A"/><rect x="30" y="21" width="5" height="1" fill="#9BD4FF"/><rect x="35" y="21" width="1" height="1" fill="#17171A"/><rect x="8" y="22" width="1" height="1" fill="#17171A"/><rect x="9" y="22" width="12" height="1" fill="#9BD4FF"/><rect x="21" y="22" width="8" height="1" fill="#C9E8FF"/><rect x="29" y="22" width="1" height="1" fill="#17171A"/><rect x="30" y="22" width="1" height="1" fill="#9BD4FF"/><rect x="31" y="22" width="4" height="1" fill="#739DBD"/><rect x="35" y="22" width="1" height="1" fill="#17171A"/><rect x="9" y="23" width="1" height="1" fill="#17171A"/><rect x="10" y="23" width="12" height="1" fill="#9BD4FF"/><rect x="22" y="23" width="2" height="1" fill="#17171A"/><rect x="24" y="23" width="3" height="1" fill="#C9E8FF"/><rect x="27" y="23" width="2" height="1" fill="#17171A"/><rect x="29" y="23" width="2" height="1" fill="#9BD4FF"/><rect x="31" y="23" width="3" height="1" fill="#739DBD"/><rect x="34" y="23" width="1" height="1" fill="#17171A"/><rect x="10" y="24" width="1" height="1" fill="#17171A"/><rect x="11" y="24" width="13" height="1" fill="#739DBD"/><rect x="24" y="24" width="3" height="1" fill="#17171A"/><rect x="27" y="24" width="6" height="1" fill="#739DBD"/><rect x="33" y="24" width="1" height="1" fill="#17171A"/><rect x="11" y="25" width="1" height="1" fill="#17171A"/><rect x="12" y="25" width="20" height="1" fill="#739DBD"/><rect x="32" y="25" width="1" height="1" fill="#17171A"/><rect x="12" y="26" width="3" height="1" fill="#17171A"/><rect x="15" y="26" width="14" height="1" fill="#739DBD"/><rect x="29" y="26" width="3" height="1" fill="#17171A"/><rect x="15" y="27" width="14" height="1" fill="#17171A"/></svg>
