<svg xmlns="http://www.w3.org/2000/svg" viewBox="0 0 38 32" shape-rendering="crispEdges" role="img" aria-label="Cozy, a pixel-art rubber duck"><rect x="11" y="5" width="8" height="1" fill="#17171A"/><rect x="10" y="6" width="1" height="1" fill="#17171A"/><rect x="11" y="6" width="8" height="1" fill="#ECD1AF"/><rect x="19" y="6" width="1" height="1" fill="#17171A"/><rect x="9" y="7" width="1" height="1" fill="#17171A"/><rect x="10" y="7" width="10" height="1" fill="#ECD1AF"/><rect x="20" y="7" width="1" height="1" fill="#17171A"/><rect x="9" y="8" width="1" height="1" fill="#17171A"/><rect x="10" y="8" width="3" height="1" fill="#ECD1AF"/><rect x="13" y="8" width="4" height="1" fill="#FFFFFF"/><rect x="17" y="8" width="3" height="1" fill="#ECD1AF"/><rect x="20" y="8" width="1" height="1" fill="#17171A"/><rect x="8" y="9" width="1" height="1" fill="#17171A"/><rect x="9" y="9" width="3" height="1" fill="#DCA96B"/><rect x="12" y="9" width="3" height="1" fill="#FFFFFF"/><rect x="15" y="9" width="2" height="1" fill="#17171A"/><rect x="17" y="9" width="1" height="1" fill="#FFFFFF"/><rect x="18" y="9" width="3" height="1" fill="#DCA96B"/><rect x="21" y="9" width="1" height="1" fill="#17171A"/><rect x="8" y="10" width="1" height="1" fill="#17171A"/><rect x="9" y="10" width="3" height="1" fill="#DCA96B"/><rect x="12" y="10" width="2" height="1" fill="#FFFFFF"/><rect x="14" y="10" width="3" height="1" fill="#17171A"/><rect x="17" y="10" width="1" height="1" fill="#FFFFFF"/><rect x="18" y="10" width="3" height="1" fill="#DCA96B"/><rect x="21" y="10" width="1" height="1" fill="#17171A"/><rect x="8" y="11" width="1" height="1" fill="#17171A"/><rect x="9" y="11" width="3" height="1" fill="#DCA96B"/><rect x="12" y="11" width="2" height="1" fill="#FFFFFF"/><rect x="14" y="11" width="3" height="1" fill="#17171A"/><rect x="17" y="11" width="1" height="1" fill="#FFFFFF"/><rect x="18" y="11" width="3" height="1" fill="#DCA96B"/><rect x="21" y="11" width="1" height="1" fill="#17171A"/><rect x="29" y="11" width="5" height="1" fill="#17171A"/><rect x="5" y="12" width="3" height="1" fill="#17171A"/><rect x="8" y="12" width="5" height="1" fill="#DCA96B"/><rect x="13" y="12" width="4" height="1" fill="#FFFFFF"/><rect x="17" y="12" width="2" height="1" fill="#DCA96B"/><rect x="19" y="12" width="2" height="1" fill="#A37D4F"/><rect x="21" y="12" width="1" height="1" fill="#17171A"/><rect x="28" y="12" width="1" height="1" fill="#17171A"/><rect x="29" y="12" width="5" height="1" fill="#ECD1AF"/><rect x="34" y="12" width="1" height="1" fill="#17171A"/><rect x="2" y="13" width="3" height="1" fill="#17171A"/><rect x="5" y="13" width="3" height="1" fill="#D9622E"/><rect x="8" y="13" width="10" height="1" fill="#DCA96B"/><rect x="18" y="13" width="2" height="1" fill="#E0577E"/><rect x="20" y="13" width="1" height="1" fill="#A37D4F"/><rect x="21" y="13" width="1" height="1" fill="#17171A"/><rect x="27" y="13" width="1" height="1" fill="#17171A"/><rect x="28" y="13" width="7" height="1" fill="#ECD1AF"/><rect x="35" y="13" width="1" height="1" fill="#17171A"/><rect x="1" y="14" width="1" height="1" fill="#17171A"/><rect x="2" y="14" width="7" height="1" fill="#D9622E"/><rect x="9" y="14" width="6" height="1" fill="#DCA96B"/><rect x="15" y="14" width="7" height="1" fill="#ECD1AF"/><rect x="22" y="14" width="5" height="1" fill="#17171A"/><rect x="27" y="14" width="8" height="1" fill="#ECD1AF"/><rect x="35" y="14" width="1" height="1" fill="#17171A"/><rect x="2" y="15" width="3" height="1" fill="#17171A"/><rect x="5" y="15" width="4" height="1" fill="#9C4721"/><rect x="9" y="15" width="3" height="1" fill="#A37D4F"/><rect x="12" y="15" width="24" height="1" fill="#ECD1AF"/><rect x="36" y="15" width="1" height="1" fill="#17171A"/><rect x="5" y="16" width="5" height="1" fill="#17171A"/><rect x="10" y="16" width="1" height="1" fill="#A37D4F"/><rect x="11" y="16" width="25" height="1" fill="#ECD1AF"/><rect x="36" y="16" width="1" height="1" fill="#17171A"/><rect x="10" y="17" width="1" height="1" fill="#17171A"/><rect x="11" y="17" width="13" height="1" fill="#E8574E"/><rect x="24" y="17" width="3" height="1" fill="#17171A"/><rect x="27" y="17" width="8" height="1" fill="#ECD1AF"/><rect x="35" y="17" width="1" height="1" fill="#17171A"/><rect x="9" y="18" width="1" height="1" fill="#17171A"/><rect x="10" y="18" width="12" height="1" fill="#E8574E"/><rect x="22" y="18" width="2" height="1" fill="#17171A"/><rect x="24" y="18" width="3" height="1" fill="#ECD1AF"/><rect x="27" y="18" width="2" height="1" fill="#17171A"/><rect x="29" y="18" width="6" height="1" fill="#DCA96B"/><rect x="35" y="18" width="1" height="1" fill="#17171A"/><rect x="8" y="19" width="1" height="1" fill="#17171A"/><rect x="9" y="19" width="10" height="1" fill="#DCA96B"/><rect x="19" y="19" width="3" height="1" fill="#A5322B"/><rect x="22" y="19" width="7" height="1" fill="#ECD1AF"/><rect x="29" y="19" width="1" height="1" fill="#17171A"/><rect x="30" y="19" width="5" height="1" fill="#DCA96B"/><rect x="35" y="19" width="1" height="1" fill="#17171A"/><rect x="8" y="20" width="1" height="1" fill="#17171A"/><rect x="9" y="20" width="10" height="1" fill="#DCA96B"/><rect x="19" y="20" width="3" height="1" fill="#A5322B"/><rect x="22" y="20" width="7" height="1" fill="#ECD1AF"/><rect x="29" y="20" width="1" height="1" fill="#17171A"/><rect x="30" y="20" width="5" height="1" fill="#DCA96B"/><rect x="35" y="20" width="1" height="1" fill="#17171A"/><rect x="8" y="21" width="1" height="1" fill="#17171A"/><rect x="9" y="21" width="10" height="1" fill="#DCA96B"/><rect x="19" y="21" width="3" height="1" fill="#A5322B"/><rect x="22" y="21" width="7" height="1" fill="#ECD1AF"/><rect x="29" y="21" width="1" height="1" fill="#17171A"/><rect x="30" y="21" width="5" height="1" fill="#DCA96B"/><rect x="35" y="21" width="1" height="1" fill="#17171A"/><rect x="8" y="22" width="1" height="1" fill="#17171A"/><rect x="9" y="22" width="10" height="1" fill="#DCA96B"/><rect x="19" y="22" width="3" height="1" fill="#A5322B"/><rect x="22" y="22" width="7" height="1" fill="#ECD1AF"/><rect x="29" y="22" width="1" height="1" fill="#17171A"/><rect x="30" y="22" width="1" height="1" fill="#DCA96B"/><rect x="31" y="22" width="4" height="1" fill="#A37D4F"/><rect x="35" y="22" width="1" height="1" fill="#17171A"/><rect x="9" y="23" width="1" height="1" fill="#17171A"/><rect x="10" y="23" width="12" height="1" fill="#DCA96B"/><rect x="22" y="23" width="2" height="1" fill="#17171A"/><rect x="24" y="23" width="3" height="1" fill="#ECD1AF"/><rect x="27" y="23" width="2" height="1" fill="#17171A"/><rect x="29" y="23" width="2" height="1" fill="#DCA96B"/><rect x="31" y="23" width="3" height="1" fill="#A37D4F"/><rect x="34" y="23" width="1" height="1" fill="#17171A"/><rect x="10" y="24" width="1" height="1" fill="#17171A"/><rect x="11" y="24" width="13" height="1" fill="#A37D4F"/><rect x="24" y="24" width="3" height="1" fill="#17171A"/><rect x="27" y="24" width="6" height="1" fill="#A37D4F"/><rect x="33" y="24" width="1" height="1" fill="#17171A"/><rect x="11" y="25" width="1" height="1" fill="#17171A"/><rect x="12" y="25" width="20" height="1" fill="#A37D4F"/><rect x="32" y="25" width="1" height="1" fill="#17171A"/><rect x="12" y="26" width="3" height="1" fill="#17171A"/><rect x="15" y="26" width="14" height="1" fill="#A37D4F"/><rect x="29" y="26" width="3" height="1" fill="#17171A"/><rect x="15" y="27" width="14" height="1" fill="#17171A"/></svg>
